<?xml version="1.0" ?>
<!-- Uploaded to: SVG Repo, www.svgrepo.com, Generator: SVG Repo Mixer Tools -->
<svg width="800px" height="800px" viewBox="0 0 64 64" xmlns="http://www.w3.org/2000/svg">
<g id="a"/>
<g id="b"/>
<g id="c"/>
<g id="d"/>
<g id="e"/>
<g id="f"/>
<g id="g"/>
<g id="h"/>
<g id="i"/>
<g id="j"/>
<g id="k"/>
<g id="l"/>
<g id="m"/>
<g id="n"/>
<g id="o"/>
<g id="p"/>
<g id="q"/>
<g id="r"/>
<g id="s"/>
<g id="t"/>
<g id="u"/>
<g id="v"/>
<g id="w"/>
<g id="x"/>
<g id="y"/>
<g id="a`"/>
<g id="aa"/>
<g id="ab"/>
<g id="ac"/>
<g id="ad"/>
<g id="ae"/>
<g id="af"/>
<g id="ag"/>
<g id="ah"/>
<g id="ai"/>
<g id="aj"/>
<g id="ak"/>
<g id="al"/>
<g id="am"/>
<g id="an"/>
<g id="ao"/>
<g id="ap"/>
<g id="aq"/>
<g id="ar"/>
<g id="as"/>
<g id="at"/>
<g id="au"/>
<g id="av">
<path d="M21.62,42.77l7.24-6.49v-7.18l-10.55-3.13c-.3-.09-.61-.08-.89,.02l-.99,5.18,3.05,3.06,2.14,8.54Z" fill="#6df4c0" id="aw"/>
<path d="M53.21,19.23c.56,0,1-.45,1-1.01v-5.17c0-.61-.37-1.16-.93-1.39l-7.02-2.93-5.83,.45-2.56,2.86-3.81,7.19,7.56,1.58,4.55-1.58,7.03-.02Z" fill="#9af6d3" id="ax"/>
<path d="M46.18,19.24h-12.11l1.95,7.89,9.69,7.95,.46-15.84Z" fill="#6df4c0" id="ay"/>
<path d="M19.49,34.23l-2.06-8.24c-.27,.09-.51,.26-.69,.49l-6.86,8.78c-.22,.28,.02,.68,.37,.61l9.24-1.64Z" fill="#6df4c0" id="b`"/>
<path d="M33,51.65l-3.58,1.81-1.72,5.28c.23,.16,.52,.26,.81,.26h12.13l-7.64-7.35Z" fill="#3aedbc" id="ba"/>
<path d="M21.62,42.77l5.54,15.28c.1,.29,.29,.52,.53,.69l5.3-7.09h0l2.73-8.88-4.73-2.26-9.37,2.26Z" fill="#6df4c0" id="bb"/>
<path d="M45.71,35.08l-3.1,1.76-.36,3.48,6.47,.19c.41,.01,.65-.45,.41-.78l-3.42-4.65Z" fill="#6df4c0" id="bc"/>
<path d="M45.71,35.08l-11.64-15.84-5.22,9.86-7.23,13.67h18.01c.63,0,1.21-.32,1.56-.84l1.06-1.6,3.46-5.24h0Z" fill="#9af6d3" id="bd"/>
<path d="M36.76,5.01c-.31,.03-.61,.13-.88,.3l-4.64,3.08c-.36,.24-.3,.78,.09,.94l6.54,2.71,.63-3.66-1.75-3.38Z" fill="#3aedbc" id="be"/>
<path d="M36.76,5.01c-.31,.03-.61,.13-.88,.3l-1.62,1.08,3.62,5.65,.44-4.03-1.55-3.01Z" fill="#31c9a0" id="bf"/>
<path d="M36.76,5.01l1.12,7.04,8.39-3.31-8.62-3.59c-.28-.12-.59-.16-.88-.14Z" fill="#6df4c0" id="bg"/>
<path d="M34.07,19.24l11.76,11.91-.12,3.93-11.64-15.84Z" fill="#3aedbc" id="bh"/>
<path d="M45.71,35.08l-3.46,5.24,2.12,.06,1.33-5.3Z" fill="#3aedbc" id="bi"/>
<path d="M21.62,42.77l4.31-14.53,2.91,.87-7.23,13.67Z" fill="#3aedbc" id="bj"/>
<path d="M21.62,42.77h14.1l-13.07,2.85-1.03-2.85Z" fill="#3aedbc" id="bk"/>
<path d="M27.7,58.74l7.26-5.21-1.95-1.88-5.3,7.09Z" fill="#31c9a0" id="bl"/>
<path d="M34.07,19.24l12.03,2.68v-2.67h-12.03Z" fill="#3aedbc" id="bm"/>
<path d="M17.43,26.02l-.52,8.67,2.57-.46-2.05-8.21Z" fill="#31c9a0" id="bn"/>
<path d="M10.42,36.85l8.32-1.48c2.45,9.74,.83,4.68,7.48,23.02,.35,.96,1.27,1.6,2.29,1.6h12.13c.41,0,.78-.25,.93-.63s.06-.81-.23-1.09l-7.2-6.92,2.33-7.59h3.17c.97,0,1.86-.48,2.39-1.29l.75-1.14,5.91,.17c.42,.01,.78-.13,1.07-.41s.46-.64,.47-1.04c0-.33-.09-.66-.29-.92l-3.21-4.37,.43-14.53,6.06-.02c1.1,0,2-.9,2-2.01v-5.17c0-1.02-.61-1.92-1.54-2.31l-15.64-6.52c-.89-.37-1.9-.27-2.7,.26l-4.64,3.08c-.34,.23-.57,.57-.65,.97-.08,.4,0,.81,.23,1.15,.17,.26,.41,.45,.69,.57l5.53,2.29-8.13,15.36-9.75-2.9c-.98-.29-2.02,.04-2.65,.85l-6.86,8.77c-.23,.29-.33,.65-.28,1.02,.05,.37,.23,.69,.52,.92,.31,.24,.71,.34,1.1,.27Zm8.33-9.71l8.65,2.57-5.44,10.28-3.22-12.85Zm19.41,30.85h-8.65l3.62-4.84,5.04,4.84Zm-6.06-6.81l-4.28,5.72-4.77-13.15h11.32l-2.28,7.42Zm15.61-11.71l-3.63-.1,1.68-2.55,1.95,2.65Zm-2.91-7.34l-8.75-11.91h9.1l-.35,11.91Zm-1.19-23.44l-4.94,1.95-.68-4.29,5.62,2.34Zm-11.09,.04l3.46-2.29,.63,3.99-4.09-1.69Zm6.07,4.09l7.67-3.03,6.65,2.77c.19,.08,.31,.26,.31,.47v5.17l-7.03,.02h-10.45l2.86-5.4Zm-4.38,8.28l10.29,14-4.13,6.27c-.16,.24-.43,.39-.72,.39H23.28l6.45-12.2h0l4.47-8.45Zm-17.33,6.8l1.38,5.51-6.61,1.17,5.23-6.69Z"/>
</g>
<g id="bo"/>
<g id="bp"/>
</svg>